<?xml version="1.0" encoding="utf-8"?><svg viewBox="0 0 1706.667 853.333" xmlns="http://www.w3.org/2000/svg" xmlns:xlink="http://www.w3.org/1999/xlink"><style>:root>svg{display:none}:root>svg:target{display:block}</style><svg viewBox="0 0 17 17" id="arrow-left-link" xmlns="http://www.w3.org/2000/svg"><circle cx="8.06" cy="8.06" r="7.31"/><path d="m7.253 4.835 3.224 3.224-3.224 3.224"/></svg><svg viewBox="0 0 18 33" id="arrow-next" xmlns="http://www.w3.org/2000/svg"><path d="M17 1 1 16.5 17 32"/></svg><svg viewBox="0 0 18 33" id="arrow-prev" xmlns="http://www.w3.org/2000/svg"><path d="m1 1 16 15.5L1 32"/></svg><svg viewBox="0 0 49 4" id="black-dots" xmlns="http://www.w3.org/2000/svg"><circle cx="2" cy="2" r="2"/><circle cx="29" cy="2" r="2"/><circle cx="11" cy="2" r="2"/><circle cx="38" cy="2" r="2"/><circle cx="20" cy="2" r="2"/><circle cx="47" cy="2" r="2"/></svg><svg version="1.0" viewBox="0 0 1280 640" id="bus" xmlns="http://www.w3.org/2000/svg"><path d="M50 85.1c0 16.9.9 20.1 7 25.9 5.8 5.4 8 9.6 8 14.8 0 8.8-12.3 45.6-50.3 151.2L1.2 314.5l-.7 64c-.9 85.4 0 96.5 8 100.5 3.8 1.9 54.8 2.5 115.1 1.5l40.1-.7 1.7-10.2c4.4-25.7 14.3-44.2 34.6-64.7 16.3-16.3 33.6-26.7 51.4-30.6 9.3-2.1 38.8-2.3 50.6-.4 21.3 3.5 40.3 13.2 57.6 29.3 18.5 17.3 29.2 36.9 34.2 62.8l2.7 14H456c32.7.1 133.8.5 224.5 1 90.8.4 165.1.7 165.2.6.1-.1 1.2-5 2.3-10.7 2.4-12.7 5.4-21.9 10.5-31.9 13.2-26.1 37.8-50.6 60.5-60.1 11.3-4.8 22.1-6.3 44.5-6.3 16.5.1 21.8.5 29.9 2.2 29.6 6.3 60.1 32 74 62.3 5.7 12.4 10.8 27 12.1 34.7.7 4 1.5 7.5 1.8 7.8.2.3 32.1.8 70.8 1.1 81.2.7 98.4 0 108.2-4.4 6.8-3.1 11.9-8.5 14.2-15.2 4.2-12.1 4.7-22.2 5.2-102.7l.5-77.1-17.1-59.9c-30-105.5-36.8-127.1-42-134.1-5.7-7.6-11.5-10.9-20.3-11.7-24.3-2.3-124.4-2.8-617.5-3.3L50 71.8v13.3zM205.3 112c13.4 1.3 18.2 3.5 20.8 9.6 3.1 6.8 4.2 39.2 3.5 95.4-.6 45.3-1.6 60.5-4.2 66.8-3.2 7.8-12 8.5-101 8-78.6-.5-78.1-.4-84-7.2-1.7-2-3.9-6-4.8-8.9-1.5-4.9-1.5-5.6.3-12.7 6.7-25.4 46.5-131.4 54.1-143.7 2.4-4 6.5-6.1 13.8-7.2 8-1.2 89.6-1.3 101.5-.1zm161.3 0c7.6.7 13.8 1.7 15 2.5 5.5 3.6 34.7 94.7 44.8 139.7 3 13.5 3.1 14.8 1 21.7-2.3 7.9-5.6 10.9-13.9 12.6-30.1 6.1-127.5 5.7-148.7-.7-12.2-3.6-14.8-23.6-12.9-100.4 1.3-53.9 1.9-59.1 7.8-67.2 2.9-3.9 7.1-6.2 14.3-7.8 7.1-1.6 74.5-1.8 92.6-.4zm198.3 0c10.3 1.2 15 3.4 17.3 8 1 1.9 4.6 12.3 8.2 23 16.2 48.9 35.6 119.1 35.6 128.9 0 4.2-3.1 10.1-7.3 13.8-6.3 5.5-10.1 5.8-79.7 5.8-77.8 0-73.8.8-81.4-15.7-4.7-10.1-11.4-30.6-23-70-14.6-49.8-16.8-58.7-17-69.8-.1-8.3.2-10 2.2-13.2 3.7-6 11.7-9.1 28.7-11.1 6.9-.9 108.7-.6 116.4.3zm202 .9c6.6 1.3 8.6 3 11.8 10.1 10.2 22.8 41 130.3 42 146.5l.5 8-4.4 7-4.4 7h-71.9c-75.5 0-76.9-.1-81.9-4.4-4.4-3.7-12.3-26.6-24.9-72.1-17.5-62.9-21.5-84.4-17.2-93.4 2.6-5.5 9.4-8.1 25.5-10 7.8-.9 119.7.2 124.9 1.3zM954 112c16.6 1.5 17.7 2 21 9.4 10.3 22.9 37.5 116.7 41.1 141.8 2 13.9-1 24.2-7.7 26-7.7 2.1-35.2 2.9-87.4 2.6-41.6-.3-56.5-.7-59.4-1.7-7-2.3-8.8-5.2-15.9-27.3-12.2-37.6-33.7-112.2-36.8-127.7-1-5.5-1-6.3 1-9.4 2.9-4.7 10.4-11.5 13.5-12.3 1.5-.3 5-1 7.9-1.4 7.9-1.1 109.5-1.1 122.7 0zm198.3-.1c8.3.6 13.6 1.4 15 2.4 6.5 4.3 15.2 29.4 34.2 98.6 8.5 31.2 11.5 45.5 11.5 55.9 0 9.1-1 12-5.8 16.6-6 5.6-8.8 5.9-74.1 6.3-60.3.5-71.9 0-78.1-3.2-2-1-3.8-3.5-5.8-7.7-7.3-15.4-35.5-108.7-42.2-139.6-2.1-9.4-1.9-12.2.8-17.7 3.7-7.6 8.3-10.2 20.6-11.5 10.1-1 108.5-1.1 123.9-.1z"/><path d="M267.5 404.1c-26 4-48.4 20.6-60 44.4-6.2 12.7-7.7 18.8-8.2 34.6-.4 11.6-.2 14.8 1.6 22 6.1 24 21.5 43.5 42.6 54 14.4 7.1 20.3 8.4 36.5 8.3 12.3-.1 14.3-.3 23-3.2 37.3-12.3 60.8-49.5 56-88.7-3.5-28.9-21.1-52.9-47.5-65.1-4.1-1.9-10.2-4.1-13.7-4.9-8.2-1.9-22.7-2.6-30.3-1.4zM950.7 404.6c-9 1.6-18.4 5.2-27.2 10.2-8.5 5-23 19.9-28.2 29.2-18.2 32.5-13.4 72 12 98.6 44.1 46.5 119.9 25.5 135.8-37.5 2.9-11.5 2.3-32.8-1.1-43.6-9.7-30.3-33.6-51.8-63.5-57-10.5-1.8-17.4-1.8-27.8.1z"/></svg><svg viewBox="0 0 18 19" id="call" xmlns="http://www.w3.org/2000/svg"><g clip-path="url(#fa)"><path d="M0 9.599c.006 0 .011-.002.015 0v.447H0V9.6ZM13.584 17.886c-.474-.004-.88-.136-1.272-.312-.713-.322-1.367-.75-2.018-1.186a45.203 45.203 0 0 1-1.88-1.324c-.396-.295-.747-.646-1.102-.99-.923-.9-1.744-1.884-2.407-3.005-.54-.91-.956-1.882-1.32-2.878-.227-.626-.462-1.25-.644-1.89-.222-.779-.43-1.564-.548-2.37-.136-.936.188-1.686.855-2.314.565-.533 1.202-.962 1.848-1.38l.13-.082c.293-.197.596-.201.905-.04.28.145.495.366.694.606.442.54.762 1.154 1.066 1.78.239.494.447 1.004.656 1.511a.69.69 0 0 1-.093.712c-.17.232-.402.391-.645.529-.514.292-1.067.478-1.63.64a6.893 6.893 0 0 1-.523.131c-.086.018-.09.05-.07.124.147.618.352 1.217.597 1.803.678 1.618 1.613 3.058 2.856 4.281.694.682 1.46 1.262 2.298 1.746.072.041.093.033.121-.046.29-.762.675-1.465 1.236-2.056.207-.218.43-.407.708-.528a.532.532 0 0 1 .508.025c.356.208.673.47.976.749.616.564 1.18 1.178 1.619 1.9.205.334.379.685.432 1.085.02.139.017.277-.013.414a.624.624 0 0 1-.203.35c-.499.431-.978.887-1.5 1.292-.364.283-.74.539-1.192.657-.16.044-.322.062-.445.066Z"/><path d="M.015 10.044v-.448a9.409 9.409 0 0 1 .57-3.016 9.134 9.134 0 0 1 .823-1.684c.011-.02.025-.037.044-.066.053.23.102.45.155.667.066.275.135.55.205.825a.257.257 0 0 1-.013.185 8.149 8.149 0 0 0-.658 4.06c.25 2.82 2 5.353 4.515 6.551a7.753 7.753 0 0 0 4.647.655c.036-.006.066-.006.098.014.434.275.878.535 1.36.762-.146.065-.287.098-.423.135a8.523 8.523 0 0 1-2.984.289c-2.324-.192-4.296-1.153-5.9-2.882C1.29 14.837.545 13.35.2 11.658a9.635 9.635 0 0 1-.184-1.614ZM17.333 13.273a9.91 9.91 0 0 0-.522-.71c-.072-.087-.14-.174-.216-.258-.043-.048-.051-.092-.032-.156a8.21 8.21 0 0 0 .343-2.493c-.045-3.34-2.184-6.369-5.268-7.472a7.742 7.742 0 0 0-2.798-.457c-.076.002-.118-.018-.154-.09a9.358 9.358 0 0 0-.514-.914C8.134.663 8.14.645 8.214.64a8.804 8.804 0 0 1 3.875.52c2.8 1.04 4.963 3.515 5.657 6.469a9.441 9.441 0 0 1 .184 3.318 9.203 9.203 0 0 1-.597 2.326Z"/></g><defs><clipPath id="fa"><path d="M0 0h18v19H0z"/></clipPath></defs></svg><svg viewBox="0 0 13 10" id="check" xmlns="http://www.w3.org/2000/svg"><path d="M11 2 5.375 8 2 4.4"/></svg><svg viewBox="0 0 9 10" id="cross" xmlns="http://www.w3.org/2000/svg"><path fill-rule="evenodd" clip-rule="evenodd" d="M1.842.821A1 1 0 1 0 .428 2.235l2.635 2.636L.428 7.507A1 1 0 1 0 1.842 8.92l2.635-2.636 2.636 2.636a1 1 0 1 0 1.414-1.414L5.892 4.87l2.635-2.636A1 1 0 0 0 7.113.821L4.477 3.457 1.842.82Z"/></svg><svg viewBox="0 0 49 5" id="dots" xmlns="http://www.w3.org/2000/svg"><circle cx="1.999" cy="2.003" r="2"/><circle cx="28.999" cy="2.003" r="2"/><circle cx="10.999" cy="2.003" r="2"/><circle cx="37.999" cy="2.003" r="2"/><circle cx="19.999" cy="2.003" r="2"/><circle cx="46.999" cy="2.003" r="2"/></svg><svg viewBox="0 0 10 21" id="ic-facebook" xmlns="http://www.w3.org/2000/svg"><path d="M2.547 20.526v-9.631H0V7.427h2.547V4.465C2.547 2.137 4.05 0 7.517 0 8.922 0 9.96.135 9.96.135l-.082 3.238s-1.058-.01-2.213-.01c-1.25 0-1.45.576-1.45 1.532v2.532h3.763l-.164 3.468h-3.6v9.631H2.547Z"/></svg><svg viewBox="0 0 20 20" id="ic-instagram" xmlns="http://www.w3.org/2000/svg"><path d="M9.748 6.499A3.258 3.258 0 0 0 6.496 9.75a3.258 3.258 0 0 0 3.252 3.251 3.258 3.258 0 0 0 3.25-3.251 3.258 3.258 0 0 0-3.25-3.251Zm9.751 3.251c0-1.346.013-2.68-.063-4.025-.076-1.56-.432-2.946-1.573-4.088C16.719.493 15.336.14 13.775.064 12.428-.01 11.094.001 9.75.001 8.404 0 7.07-.011 5.725.064 4.165.14 2.78.496 1.637 1.637.493 2.781.14 4.164.064 5.725-.01 7.072.001 8.406.001 9.75c0 1.344-.012 2.68.063 4.025.076 1.56.432 2.946 1.573 4.088 1.144 1.144 2.527 1.497 4.088 1.573 1.347.076 2.681.063 4.025.063 1.346 0 2.68.013 4.025-.063 1.56-.076 2.946-.432 4.088-1.573 1.144-1.144 1.497-2.527 1.573-4.088.078-1.344.063-2.679.063-4.025Zm-9.751 5.003A4.996 4.996 0 0 1 4.745 9.75a4.996 4.996 0 0 1 5.003-5.003A4.996 4.996 0 0 1 14.75 9.75a4.996 4.996 0 0 1-5.002 5.003Zm5.207-9.042a1.167 1.167 0 0 1-1.168-1.169c0-.646.522-1.168 1.168-1.168a1.167 1.167 0 0 1 .827 1.995 1.167 1.167 0 0 1-.827.342Z"/></svg><svg viewBox="0 0 21 17" id="ic-twitter" xmlns="http://www.w3.org/2000/svg"><path d="M20.526 1.98a8.436 8.436 0 0 1-2.422.652 4.196 4.196 0 0 0 1.85-2.319 8.304 8.304 0 0 1-2.67 1.017A4.196 4.196 0 0 0 14.212 0a4.205 4.205 0 0 0-4.206 4.208c0 .326.04.652.104.965A11.954 11.954 0 0 1 1.436.77a4.177 4.177 0 0 0-.573 2.124c0 1.46.743 2.748 1.875 3.505a4.243 4.243 0 0 1-1.902-.535v.051a4.207 4.207 0 0 0 3.372 4.13 4.456 4.456 0 0 1-1.107.143c-.274 0-.533-.027-.795-.064a4.214 4.214 0 0 0 3.933 2.918 8.43 8.43 0 0 1-5.223 1.798c-.352 0-.678-.012-1.016-.051a11.911 11.911 0 0 0 6.46 1.887c7.737 0 11.97-6.41 11.97-11.972 0-.182 0-.365-.013-.547a9.06 9.06 0 0 0 2.11-2.176Z"/></svg><svg viewBox="0 0 19 19" id="location" xmlns="http://www.w3.org/2000/svg"><g clip-path="url(#ma)"><path d="M10.744 3.23c.024.007.048.015.074.02.228.065.444.157.667.24.074.041.148.08.228.11l.188.105a.122.122 0 0 0 .07.038c.2.129.4.263.585.41.093.08.187.16.279.241l.016.016.252.255c.23.276.447.565.63.877l.24.489.124.324a.65.65 0 0 0 .056.18c-.002.015-.006.03.012.039a.21.21 0 0 0 .008.034c-.002.016.002.026.014.036a.221.221 0 0 1 .004.036l.018.07c.008.038.008.076.032.11l.052.27c.002.019.004.037.004.055 0 .026 0 .05.014.072a.492.492 0 0 1 .004.054l.034.342v.054c.006.18-.006.36-.018.541l-.004.054c-.014.022-.016.048-.014.072l-.004.054-.068.307c-.024.032-.024.072-.034.108-.006.024-.012.048-.02.072l-.006.034a.266.266 0 0 0-.036.108.583.583 0 0 0-.05.163c-.043.114-.083.228-.125.342l-.218.523-.258.54c-.042.069-.08.139-.108.215l-.03.056c-.046.068-.085.14-.115.216-.112.205-.224.409-.338.613-.11.17-.215.343-.309.523-.022.026-.046.052-.054.088a.528.528 0 0 0-.094.15l-.36.575a.406.406 0 0 0-.072.11c-.032.05-.067.099-.099.149-.014.012-.026.024-.026.044-.02.012-.028.032-.036.054a.1.1 0 0 0-.036.054.1.1 0 0 0-.036.054.336.336 0 0 0-.074.108.933.933 0 0 0-.122.182l-.58.842-.598.83-.032.037c-.084.072-.168.144-.252.218a.094.094 0 0 0-.058.036l-.12.056c-.14.048-.285.074-.433.09l-.072-.002a1.892 1.892 0 0 1-.397-.088 1.387 1.387 0 0 1-.589-.527c-.02-.031-.048-.06-.072-.09l-.166-.232c-.01-.02-.016-.042-.038-.054l-.611-.871a.589.589 0 0 0-.108-.156c-.006-.025-.016-.043-.036-.055a9.785 9.785 0 0 0-.359-.544c-.174-.275-.348-.55-.525-.826l-.304-.502a1.647 1.647 0 0 0-.162-.275c-.096-.202-.217-.392-.323-.59l-.252-.487-.154-.325-.066-.132a.606.606 0 0 0-.072-.16c-.103-.265-.207-.527-.309-.791a.941.941 0 0 0-.07-.22l-.144-.574-.004-.054c0-.026 0-.05-.014-.072l-.004-.054-.022-.33v-.082a.695.695 0 0 0 .006-.183l.034-.342c.002-.024.004-.048.004-.072.014-.016.016-.034.014-.054l.004-.055.14-.594c.02-.02.022-.046.02-.073.082-.23.172-.456.272-.679l.253-.45c.018-.016.034-.032.038-.058.096-.128.188-.26.286-.387.275-.35.601-.645.956-.911l.034-.022.072-.052.158-.104.487-.265c.248-.108.5-.206.759-.284.27-.064.54-.126.817-.15.262-.025.525-.035.787-.016.31.02.615.076.92.136.004.004.008.004.014 0 .016.008.024.01.03.014Zm-.177 6.298a.212.212 0 0 0 .109-.072.953.953 0 0 0 .218-.182.121.121 0 0 0 .05-.05.97.97 0 0 0 .196-.239.094.094 0 0 0 .038-.054v.002c.07-.086.118-.186.16-.29.01-.014.025-.028.023-.048.016-.01.018-.024.016-.042.012-.016.024-.032.02-.055a.96.96 0 0 0 .086-.306c.002-.036.004-.072.004-.108.02-.006.016-.022.014-.036l.004-.036c.016-.152.036-.305-.018-.453a.492.492 0 0 1-.004-.054c.004-.014-.004-.018-.014-.02l-.002-.104a1.257 1.257 0 0 0-.11-.34 1.89 1.89 0 0 0-.535-.74c-.098-.086-.196-.174-.325-.216-.004-.01-.008-.018-.02-.014-.006-.002-.01-.004-.016-.004-.008-.02-.028-.028-.046-.038a2.082 2.082 0 0 0-.587-.192l-.09-.006c-.028-.02-.06-.014-.09-.014h-.054c-.108 0-.218-.018-.324.014a.505.505 0 0 0-.217.038c-.2.038-.386.108-.559.218a1.786 1.786 0 0 0-.65.607.089.089 0 0 0-.039.058l.002-.002c-.132.192-.22.405-.266.635-.008.018-.022.034-.016.054 0 .012 0 .024-.002.036-.032.05-.018.108-.022.162a1.013 1.013 0 0 0 0 .38c-.002.06 0 .123.022.18.032.197.096.384.194.558.22.437.561.743 1.012.933.15.066.304.114.466.128l.036.004c.12.03.24.02.361.016l.054-.002a.245.245 0 0 0 .126-.014l.036-.004c.17-.018.335-.062.487-.14a.23.23 0 0 0 .11-.05c.058-.028.116-.052.162-.098Z"/><path d="M9.5 0C4.254 0 0 4.254 0 9.5S4.254 19 9.5 19 19 14.746 19 9.5A9.5 9.5 0 0 0 9.5 0Zm0 17.928a8.428 8.428 0 1 1 0-16.856 8.428 8.428 0 0 1 0 16.856Z"/></g><defs><clipPath id="ma"><path d="M0 0h19v19H0z"/></clipPath></defs></svg><svg viewBox="0 0 270 74" id="logo" xmlns="http://www.w3.org/2000/svg"><path d="M193.287 42.267h-7.821V38.84h7.821v3.427ZM207.274 28.165h-4.23v22.268h-3.821V28.165h-4.23V24.77h12.281v3.395ZM222.377 50.433h-4.001l-4.231-11.921V36.2h3.771v-8.134h-4.837v22.367h-3.837V24.77h10.183c1.541 0 2.312.788 2.312 2.362v9.33c0 1.082-.366 1.782-1.099 2.099-.393.164-1.224.246-2.492.246l4.231 11.626ZM237.561 48.088c0 1.563-.787 2.345-2.362 2.345h-8.149c-1.552 0-2.329-.782-2.329-2.345V24.77h3.837v22.367h5.166V24.77h3.837v23.318ZM253.286 48.088c0 1.563-.782 2.345-2.345 2.345h-8.002c-1.519 0-2.279-.782-2.279-2.345V27.132c0-1.574.76-2.362 2.279-2.362h8.002c1.563 0 2.345.788 2.345 2.362v6.001h-3.821v-5.067h-4.968v19.07h4.968v-5.394h3.821v6.346ZM269.241 50.433h-4.231l-4.87-11.446v11.446h-3.837V24.77h3.837v10.856l4.263-10.855h4.198v.18l-5.214 12.183 5.854 13.299ZM125.626 48.088c0 1.564-.782 2.345-2.345 2.345h-8.002c-1.519 0-2.279-.781-2.279-2.345V27.132c0-1.574.76-2.36 2.279-2.36h8.002c1.563 0 2.345.786 2.345 2.36v6.002h-3.821v-5.067h-4.968v19.07h4.968v-5.395h3.821v6.346ZM138.728 50.433h-10.085V24.771h3.837v22.235h6.248v3.427ZM151.649 50.433h-10.642V24.771h10.544v3.394h-6.707v7.494h5.772v3.329h-5.772v8.05h6.805v3.395ZM167.292 50.433h-3.804l-.771-4.87h-4.804l-.771 4.87h-3.788v-.065l4.969-25.63h4.033l4.936 25.695Zm-5.116-8.166-1.869-11.576-1.886 11.576h3.755ZM182.443 50.433h-3.361l-6.149-16.151c.164.787.246 1.404.246 1.853v14.298h-3.739V24.771h3.362l6.149 15.824c-.164-.787-.246-1.405-.246-1.853v-13.97h3.738v25.661Z"/><g clip-path="url(#na)"><path d="M35.581 27.75v7.597c0 1.157-.824 1.157-1.482 1.487-5.272 2.147-10.708 4.295-15.979 6.442-.33.165-.823.165-1.153.33v.166c.494 0 .989-.166 1.483-.166 4.777-1.156 9.718-2.312 14.496-3.634 2.306-.66 2.306-.66 2.306 1.983-.165 3.138-.165 6.276-.165 9.25 0 1.156-.33 1.651-1.647 1.486-6.754-.495-13.508-.826-20.262-1.321-3.13-.165-4.777-1.817-5.106-4.625-.33-3.139 1.153-6.277 3.624-7.103 1.153-.495 1.812-2.643.988-3.8-1.153-1.486-1.647-3.137-1.482-4.954.33-2.643 1.812-4.46 4.777-4.956-1.483-1.817-1.483-3.303.494-4.625.659-.33.33-.66.165-1.156-1.318-3.304-.66-4.46 3.13-4.79.494 0 .823 0 .823-.496 0-2.147 1.318-3.469 3.295-3.634 2.141-.165 3.294 1.322 3.953 3.139 0 0 0 .165.33.33.988-.991 2.14-1.982 3.623-2.312 2.471-.33 4.118 1.156 4.283 3.633.165 2.808-.494 4.79-2.965 6.442-3.788 2.643-7.412 5.782-11.036 8.59-.495.33-1.154.66-1.483 1.982 5.271-3.138 10.048-6.277 14.99-9.25.165 0 .165.165.33.165v1.322c-2.965 1.982-5.93 3.964-8.73 5.946-.33.165-.495.33-.825.495.495.33.824.166 1.153-.165 2.636-1.156 5.272-2.477 8.072-3.799Zm-15.978 5.615c-.165.33-.824.165-.66.496.165.33.66.165.99-.165.164-.166.493-.166.329-.496-.33-.165-.495 0-.66.165Zm5.93-18.5c-.66 2.973-2.306 4.46-4.777 5.616 2.635.661 4.118 1.982 4.777 4.46.988-2.312 2.47-3.634 5.106-4.46-3.13-.826-4.118-2.973-5.106-5.616ZM13.673 32.21c1.317.495 1.976 1.156 2.635 2.478.66-1.157 1.483-1.982 2.965-2.478-1.647-.496-2.306-1.652-2.965-3.138-.494 1.486-1.482 2.312-2.635 3.138ZM33.605 7.929C37.395 6.442 39.7 4.129 40.69 0c1.482 3.8 2.965 6.938 7.412 7.763-3.788 1.157-6.26 2.974-7.577 6.773-.659-3.965-3.13-5.782-6.919-6.607ZM5.272 42.781c-1.318-.165-2.141-.826-2.141-2.147 0-1.322.659-2.313 2.141-2.313 1.318 0 2.142.826 2.142 2.148 0 1.321-.824 2.147-2.142 2.312ZM1.812 24.943C.659 24.613 0 24.117 0 22.96c0-1.156.824-1.816 1.812-1.816 1.153 0 1.977.825 1.977 1.982 0 1.156-.824 1.651-1.977 1.817ZM8.402 27.585c-1.153-.165-1.976-.66-1.976-1.817 0-1.156.659-1.982 1.976-1.982 1.154 0 1.813.66 1.813 1.817 0 1.156-.66 1.817-1.813 1.982ZM3.13 29.567c-.824-.165-1.483-.496-1.483-1.487 0-.825.66-1.486 1.483-1.486.824 0 1.318.495 1.318 1.321.165.991-.494 1.487-1.318 1.652ZM13.672 14.205c-.823 0-1.318-.495-1.318-1.321s.495-1.322 1.154-1.322c.823 0 1.317.496 1.317 1.322.165.826-.33 1.321-1.153 1.321ZM9.225 13.544c.66.165 1.153.495 1.153 1.156 0 .66-.494 1.156-1.153 1.156-.823 0-1.153-.495-1.153-1.321 0-.66.494-.991 1.153-.991ZM14.331 7.763c.659.165.989.33.989.99 0 .661-.33.992-.989.992-.494 0-.988-.33-.988-.991 0-.66.494-.991.988-.991ZM10.707 9.911c.494 0 .824.33.824.826 0 .496-.33.826-.824.826-.659 0-.988-.33-.988-.991 0-.496.33-.66.988-.66ZM52.876 18.831c5.93.33 11.86.826 17.46 3.304 9.72 4.294 11.367 11.397 11.696 18.83 0 .991-.33 1.321-1.317 1.156-6.095-.33-12.355-.66-18.45-1.156-3.624-.33-7.412-.165-11.036.33-2.636.33-2.8.33-2.965-2.477 0-1.157 0-2.313-.165-3.634-.33-2.148.823-3.304 2.8-3.965 1.647-.495 3.295-.66 5.107-.495l16.802.991c1.647.165 3.294.165 5.106.33-1.153-3.303-3.294-5.616-5.93-7.268-4.777-2.973-10.048-4.129-15.484-4.955l-3.46-.495c0-.166-.164-.33-.164-.496ZM76.762 61.446c-.494-3.303-.988-6.607-1.318-10.075-.165-1.157-.659-1.652-1.647-2.148a259.216 259.216 0 0 1-13.837-6.442c9.554 2.808 19.108 6.277 29.486 4.295-.824-.496-1.483-.991-2.306-1.487-.66-.495-1.318-.826-1.977-1.486 2.965.33 5.6 1.651 7.577 3.799 2.306 2.477.989 5.616 1.483 8.754 1.318-.33 2.636-.826 3.624.661.33.66.33 1.156-.165 1.652-.988 1.156-2.141.826-3.46.33-.164.66-.164 1.156-.329 1.817-1.153-1.486-2.8-.826-4.118-.826-3.294 0-6.424.165-9.719.165-.823 0-1.647-.165-1.811.991h-1.483Zm8.072-7.267h6.588c.495 0 1.154.165 1.154-.661 0-.826-.495-.826-.989-.826H78.41c-.494 0-1.153 0-1.153.66 0 .827.659.661 1.153.661 1.977.166 4.283.166 6.424.166Zm-.165-1.983c2.141-.165 4.283-.165 6.589-.165.494 0 1.153.165 1.318-.495 0-.826-.66-.826-1.318-.826-4.283 0-8.73.165-13.013.165-.495 0-1.154 0-.989.826 0 .66.659.495.989.495h6.424Zm8.236 5.286v-.495H78.08v.495h14.825ZM77.75 49.884h13.178v-.496c-4.447-.825-8.895-.825-13.178.496Zm.495 8.92v.495H92.74v-.495H78.245ZM50.9 65.08c0-2.478.329-4.955 1.647-7.103 1.482-2.477 3.788-2.642 5.106 0 2.471 4.625 2.471 9.416 0 14.04-1.318 2.643-3.624 2.478-5.106 0-1.318-1.982-1.648-4.46-1.648-6.937Zm5.435-.33c-.164-.991 0-2.643-1.317-2.643-1.318 0-1.318 1.486-1.318 2.643 0 .99-.165 2.642 1.318 2.642 1.317-.165.988-1.651 1.317-2.642ZM69.515 71.358c7.577-.496 15.154-1.156 22.896-1.652 2.8-.165 5.272-3.469 4.613-6.277-.165-.99-.989-1.486-1.812-2.147 1.318-.66 2.47-.496 3.294.165.824.66.165 1.652.165 2.313 0 .66-.33 1.321-.494 1.982-1.153 4.294-2.142 5.12-6.59 5.45-8.565.661-16.966 1.487-25.532 2.148-3.13.33-4.118-.496-4.777-3.8.989.662 1.648 1.818 2.965 1.983.33 0 .66-.165.824-.165 1.153 0 2.47-.165 3.624-.165.33.165.659.165.824.165ZM33.441 55.501c1.977 1.817 2.47 6.442.824 8.424-.824.991-1.648.826-2.142-.165l-.988-1.982c-1.812 1.817-2.142 1.817-3.295-.496-.33-.825-.659-.99-1.153-.33-.659.826-1.318.33-1.647-.33-1.153-1.817-.824-4.79.824-6.442 1.317.33 1.317 1.651 1.812 2.808.659-1.157.823-2.478 2.47-2.313.33.826.824 1.487 1.154 2.313.659-.661.823-1.817 2.141-1.487Z"/><path d="M33.439 55.5c-.824-1.486-2.142-.825-3.46-.825-1.317-.826-2.8-.661-4.282-.826-.165 0-.165 0-.33-.165v-.661c5.107.33 10.048.495 15.155.826 3.624.165 4.283-.496 4.283-4.13 0-6.772 0-13.544.33-20.317.988 1.817.823 3.634.988 5.616.659 6.608.823 13.215 0 19.657-.165 1.156-.495 1.321-1.648 1.156a90.518 90.518 0 0 0-9.389-.991c-.659.165-1.483-.496-1.647.66ZM93.401 63.594c-.658 3.799-1.482 4.46-4.941 4.625l-7.907.495c-1.812 0-3.295-2.147-2.471-3.799.165-.495.659-.495 1.153-.495 4.777-.33 9.39-.661 14.166-.826Z"/><path d="M36.406 42.288c0-6.938.494-13.875 1.483-20.813.164-1.321 1.153-1.487 2.141-1.652 3.954-.66 7.083.826 9.884 3.469 1.482 1.321 2.8 2.973 3.13 5.12a25.484 25.484 0 0 0-4.448-3.964 13.934 13.934 0 0 0-4.942-2.477c-2.47-.661-4.118.495-4.447 2.973-1.154 5.781-1.648 11.562-1.977 17.509-.33-.165-.494-.165-.824-.165ZM70.998 53.023c-2.8-.496-5.436-1.487-8.401-1.983-6.754-.99-9.39.33-12.19 6.442-.824 1.983-1.812 2.478-3.789 1.983-2.141-.661-4.447-.826-6.589-1.322 2.142-.33 4.283-.165 6.425.165 1.153.165 1.812-.165 2.306-1.156l2.47-3.964c1.977-2.974 4.778-4.13 8.072-3.8 4.283.166 8.236 1.487 11.696 3.635ZM54.855 6.112c2.635-1.156 4.118-2.808 4.941-5.45.989 2.477 1.977 4.624 4.942 5.45-2.306.826-4.118 1.817-4.942 4.46-.823-2.643-2.306-3.964-4.941-4.46ZM65.233 71.522c-.33 0-.659.165-.824.165.824-1.156-.494-1.32-.988-1.651-.989-1.322-1.977-2.478-1.812-4.13.165-1.486.823-2.312 2.47-2.312 1.978 0 3.79.165 6.26.66-1.317.826-2.306.33-3.13.496-1.482.165-3.13 0-3.623 1.817-.33 1.156 1.976 3.304 3.624 3.304 1.482.165 2.965.165 4.283.165-.165.165-.33.495-.33.66-.494 0-.988 0-1.483.166-.494-.166-.494.165-.164.495h-.66c-.823-.826-2.8-.66-3.623.165ZM78.41 61.613h15.65c-9.72.661-19.438 2.148-29.322 0h11.86c.66.33 1.154.33 1.813 0ZM51.889 16.021c-.33-1.982-1.647-2.642-3.46-3.138 1.813-.826 2.966-1.982 3.625-3.799.988 1.652 1.647 3.304 3.788 3.8-1.812.66-2.965 1.65-3.953 3.137ZM38.382 63.429c2.141-.165 3.624.66 5.271.99 1.647.331 3.46.992 5.107 1.322 1.482.165 1.976.991 1.812 2.643-4.119-1.652-7.907-3.138-12.19-4.955ZM18.12 53.518c.824 1.322.824 2.643.33 3.965-.33.826-.824 1.486-1.648.33-.164-.165-.164-.826-.494-.66-1.812.66-1.482-.661-1.647-1.652-.165-2.148.165-2.478 2.47-2.148.166.165.66.165.99.165ZM67.866 60.291c-1.153 0-2.141-.495-2.141-1.652-.165-1.321.988-1.817 2.141-1.817.989 0 1.977.496 1.977 1.652s-.988 1.652-1.977 1.817Z"/><path d="M71.655 68.219c-.659-.166-1.153 0-1.647.33s-1.153.33-1.647-.165c-.33-.496-.494-.991-.165-1.487.494-.66.989-.826 1.647-.496.495.33 1.153.33 1.648 0 .494-.165.988-.165 1.482.166.33.33.33.66.165 1.156-.33.66-.824.66-1.483.496ZM72.644 60.29c-.824-.165-1.977-.165-1.977-1.321 0-1.157 1.153-1.157 1.977-1.157.823 0 2.141 0 1.976 1.322 0 .991-.988.991-1.976 1.156ZM36.406 42.286h.66c-.166 1.817-.166 3.8-.33 5.616h-.33v-5.616ZM52.877 18.83v.496c-1.812-.165-3.46-.33-5.272-.496 1.812-.33 3.624-.495 5.272 0ZM20.92 53.353v-.496c1.483 0 2.966.166 4.284.166v.66c-1.318 0-2.8-.165-4.283-.33ZM71.163 70.366c.165-.165.33-.496.33-.66h3.459c-1.647.66-2.636.825-3.789.66ZM63.585 61.779c0 .165 0 .165 0 0-.165.165-.33.165-.33 0-.165 0-.165-.166-.33-.166h.33c.165.166.33.166.33.166ZM78.41 61.612a3.374 3.374 0 0 1-1.812 0c0-.166.164-.166.164-.33h1.318c.165.164.165.33.33.33Z"/></g><defs><clipPath id="na"><path d="M0 0h99v74H0z"/></clipPath></defs></svg><svg viewBox="0 0 12 12" id="time" xmlns="http://www.w3.org/2000/svg"><path d="M6 3v3.235L8 8"/><circle cx="6" cy="6" r="5.25"/></svg><svg viewBox="0 0 188 71" id="waves" xmlns="http://www.w3.org/2000/svg"><path opacity=".5" fill-rule="evenodd" clip-rule="evenodd" d="M13.485 65.743C10.245 67.968 6.47 70.25 0 70.25v-1.5c6.03 0 9.503-2.093 12.636-4.243.262-.18.523-.362.784-.543C16.28 61.975 19.122 60 23.5 60c4.642 0 7.623 2.051 10.583 4.088.203.14.405.28.608.418C37.85 66.664 41.227 68.75 47 68.75c6.03 0 9.503-2.093 12.636-4.243.262-.18.523-.362.784-.544C63.28 61.976 66.121 60 70.5 60c4.642 0 7.623 2.051 10.583 4.088.203.14.405.28.608.418C84.85 66.664 88.227 68.75 94 68.75c6.03 0 9.503-2.093 12.636-4.243.262-.18.523-.361.783-.543h.001C110.279 61.975 113.121 60 117.5 60c4.642 0 7.623 2.051 10.583 4.088.203.14.405.28.608.418 3.16 2.158 6.536 4.244 12.309 4.244 6.03 0 9.503-2.093 12.636-4.243.262-.18.523-.362.784-.544C157.279 61.976 160.121 60 164.5 60c4.642 0 7.623 2.051 10.583 4.088.203.14.405.28.608.418 3.16 2.158 6.536 4.244 12.309 4.244v1.5c-6.227 0-9.91-2.29-13.155-4.506l-.563-.385c-2.994-2.057-5.619-3.859-9.782-3.859-3.891 0-6.363 1.713-9.255 3.718l-.003.002-.004.003-.753.52c-3.241 2.225-7.015 4.507-13.485 4.507-6.227 0-9.91-2.29-13.155-4.506l-.559-.383-.004-.002c-2.994-2.057-5.619-3.859-9.782-3.859-3.891 0-6.363 1.713-9.255 3.718h-.001l-.006.005-.753.52C104.244 67.968 100.47 70.25 94 70.25c-6.227 0-9.91-2.29-13.155-4.506l-.56-.383-.003-.002C77.288 63.302 74.663 61.5 70.5 61.5c-3.891 0-6.363 1.713-9.255 3.718-.25.173-.503.349-.76.525C57.245 67.968 53.47 70.25 47 70.25c-6.227 0-9.91-2.29-13.155-4.506l-.563-.385C30.288 63.302 27.663 61.5 23.5 61.5c-3.891 0-6.363 1.713-9.255 3.718-.25.173-.503.349-.76.525Zm0-20C10.245 47.968 6.47 50.25 0 50.25v-1.5c6.03 0 9.503-2.093 12.636-4.243.262-.18.523-.362.784-.543C16.28 41.975 19.122 40 23.5 40c4.642 0 7.623 2.051 10.583 4.089l.608.417C37.85 46.664 41.227 48.75 47 48.75c6.03 0 9.503-2.093 12.636-4.243.262-.18.523-.362.784-.544C63.28 41.976 66.121 40 70.5 40c4.642 0 7.623 2.051 10.583 4.089l.608.417C84.85 46.664 88.227 48.75 94 48.75c6.03 0 9.503-2.093 12.636-4.243.262-.18.523-.361.783-.543h.001C110.279 41.975 113.121 40 117.5 40c4.642 0 7.623 2.051 10.583 4.089l.608.417c3.16 2.158 6.536 4.244 12.309 4.244 6.03 0 9.503-2.093 12.636-4.243.262-.18.523-.362.784-.544C157.279 41.976 160.121 40 164.5 40c4.642 0 7.623 2.051 10.583 4.089l.608.417c3.16 2.158 6.536 4.244 12.309 4.244v1.5c-6.227 0-9.91-2.29-13.155-4.506l-.563-.386c-2.994-2.056-5.619-3.858-9.782-3.858-3.891 0-6.363 1.713-9.255 3.718l-.003.002-.004.003-.002.001-.751.52c-3.241 2.224-7.015 4.506-13.485 4.506-6.227 0-9.91-2.29-13.155-4.506l-.559-.383-.004-.002c-2.994-2.057-5.619-3.859-9.782-3.859-3.891 0-6.363 1.713-9.255 3.718h-.001l-.006.005c-.247.172-.498.345-.753.52-3.241 2.225-7.015 4.507-13.485 4.507-6.227 0-9.91-2.29-13.155-4.506l-.56-.383-.003-.002C77.288 43.301 74.663 41.5 70.5 41.5c-3.891 0-6.363 1.713-9.255 3.718-.25.173-.503.349-.76.525C57.245 47.968 53.47 50.25 47 50.25c-6.227 0-9.91-2.29-13.155-4.506l-.563-.385C30.288 43.301 27.663 41.5 23.5 41.5c-3.891 0-6.363 1.713-9.255 3.718-.25.174-.503.349-.76.525Zm0-20C10.245 27.968 6.47 30.25 0 30.25v-1.5c6.03 0 9.503-2.093 12.636-4.243.262-.18.522-.36.782-.542h.001v-.001h.001C16.28 21.975 19.122 20 23.5 20c4.642 0 7.623 2.051 10.583 4.088.203.14.405.28.608.418C37.85 26.664 41.227 28.75 47 28.75c6.03 0 9.503-2.093 12.636-4.243.262-.18.523-.362.784-.544C63.28 21.976 66.121 20 70.5 20c4.642 0 7.623 2.051 10.583 4.088.203.14.405.28.608.418C84.85 26.664 88.227 28.75 94 28.75c6.03 0 9.503-2.093 12.636-4.243.262-.18.523-.361.783-.543h.001C110.279 21.975 113.121 20 117.5 20c4.642 0 7.623 2.051 10.583 4.088.203.14.405.28.608.418 3.16 2.158 6.536 4.244 12.309 4.244 6.03 0 9.503-2.093 12.636-4.243.262-.18.523-.362.784-.544C157.279 21.976 160.121 20 164.5 20c4.642 0 7.623 2.051 10.583 4.088.203.14.405.28.608.418 3.16 2.158 6.536 4.244 12.309 4.244v1.5c-6.227 0-9.91-2.29-13.155-4.506l-.263-.18-.3-.206c-2.994-2.056-5.619-3.858-9.782-3.858-3.891 0-6.363 1.713-9.255 3.718l-.003.002-.003.002-.003.003-.751.518c-3.241 2.225-7.015 4.507-13.485 4.507-6.227 0-9.91-2.29-13.155-4.506l-.559-.383-.004-.003c-2.994-2.056-5.619-3.858-9.782-3.858-3.891 0-6.363 1.713-9.255 3.718h-.001l-.006.005c-.247.172-.498.345-.753.52-3.241 2.225-7.015 4.507-13.485 4.507-6.227 0-9.91-2.29-13.155-4.506l-.56-.383-.003-.003C77.288 23.302 74.663 21.5 70.5 21.5c-3.891 0-6.363 1.713-9.255 3.718-.25.173-.503.349-.76.525C57.245 27.968 53.47 30.25 47 30.25c-6.227 0-9.91-2.29-13.155-4.506l-.563-.385C30.288 23.302 27.663 21.5 23.5 21.5c-3.891 0-6.363 1.713-9.255 3.718-.25.174-.503.349-.76.525ZM0 10.25c6.47 0 10.244-2.282 13.485-4.507l.757-.523.003-.002C17.137 3.213 19.609 1.5 23.5 1.5c4.163 0 6.788 1.802 9.782 3.858l.004.003c.184.127.37.255.559.383C37.09 7.961 40.773 10.25 47 10.25c6.47 0 10.244-2.282 13.485-4.507.257-.176.51-.352.76-.525C64.137 3.213 66.609 1.5 70.5 1.5c4.163 0 6.788 1.802 9.782 3.858l.004.003.358.246.2.137C84.09 7.961 87.775 10.25 94 10.25c6.47 0 10.244-2.282 13.485-4.507l.753-.52.006-.004h.001c2.892-2.006 5.364-3.719 9.255-3.719 4.163 0 6.788 1.802 9.782 3.858l.004.003.559.383c3.245 2.217 6.928 4.506 13.155 4.506 6.47 0 10.244-2.282 13.485-4.507l.753-.52.004-.003.003-.002c2.892-2.005 5.364-3.718 9.255-3.718 4.163 0 6.788 1.802 9.782 3.858l.311.214.252.172c3.245 2.217 6.928 4.506 13.155 4.506v-1.5c-5.773 0-9.149-2.086-12.309-4.244l-.607-.417h-.001C172.123 2.05 169.142 0 164.5 0c-4.379 0-7.221 1.976-10.08 3.963l-.784.544C150.503 6.657 147.03 8.75 141 8.75c-5.773 0-9.149-2.086-12.309-4.244l-.513-.352-.095-.065C125.123 2.05 122.142 0 117.5 0c-4.379 0-7.221 1.976-10.08 3.963l-.001.001c-.26.182-.521.363-.783.543C103.503 6.657 100.03 8.75 94 8.75c-5.773 0-9.15-2.086-12.31-4.244l-.607-.417C78.123 2.05 75.142 0 70.5 0c-4.379 0-7.22 1.976-10.08 3.963v.001c-.261.181-.522.363-.784.543C56.503 6.657 53.03 8.75 47 8.75c-5.773 0-9.15-2.086-12.31-4.244l-.607-.417C31.123 2.05 28.142 0 23.5 0c-4.379 0-7.22 1.976-10.08 3.963-.26.182-.522.364-.784.544C9.503 6.657 6.03 8.75 0 8.75v1.5Z"/></svg></svg>