<svg width="188" height="71" viewBox="0 0 188 71" fill="none" xmlns="http://www.w3.org/2000/svg">
<path opacity="0.5" fill-rule="evenodd" clip-rule="evenodd" d="M13.4847 65.7433C10.2444 67.9676 6.46969 70.25 0 70.25L-6.55672e-08 68.75C6.03031 68.75 9.5026 66.6574 12.6358 64.5066C12.8982 64.3265 13.1593 64.145 13.4202 63.9636L13.4203 63.9636L13.4203 63.9635L13.4204 63.9635L13.4205 63.9634L13.4205 63.9634C16.2794 61.9757 19.1212 60 23.5 60C28.1417 60 31.1228 62.0514 34.0832 64.0885C34.2857 64.2279 34.4881 64.3671 34.6909 64.5057C37.8509 66.6643 41.2268 68.75 47 68.75C53.0303 68.75 56.5026 66.6574 59.6358 64.5066C59.8983 64.3265 60.1595 64.1449 60.4205 63.9634C63.2794 61.9757 66.1211 60 70.5 60C75.1417 60 78.1228 62.0514 81.0832 64.0885C81.2857 64.2279 81.4881 64.3671 81.6909 64.5057C84.8509 66.6643 88.2268 68.75 94 68.75C100.03 68.75 103.503 66.6574 106.636 64.5066C106.898 64.3268 107.159 64.1456 107.419 63.9644L107.42 63.9634C110.279 61.9757 113.121 60 117.5 60C122.142 60 125.123 62.0514 128.083 64.0885C128.286 64.2279 128.488 64.3671 128.691 64.5057C131.851 66.6642 135.227 68.75 141 68.75C147.03 68.75 150.503 66.6574 153.636 64.5066C153.898 64.3265 154.159 64.1449 154.42 63.9634C157.279 61.9757 160.121 60 164.5 60C169.142 60 172.123 62.0514 175.083 64.0885C175.286 64.2279 175.488 64.3671 175.691 64.5057C178.851 66.6642 182.227 68.75 188 68.75L188 70.25C181.773 70.25 178.09 67.9607 174.845 65.7443C174.656 65.6149 174.468 65.4862 174.282 65.3585C171.288 63.3024 168.663 61.5 164.5 61.5C160.609 61.5 158.137 63.2133 155.245 65.2183L155.242 65.2202L155.238 65.2227C154.991 65.3944 154.74 65.5682 154.485 65.7433C151.244 67.9676 147.47 70.25 141 70.25C134.773 70.25 131.09 67.9607 127.845 65.7443C127.657 65.6158 127.471 65.4879 127.286 65.361L127.286 65.3609L127.282 65.3585C124.288 63.3024 121.663 61.5 117.5 61.5C113.609 61.5 111.137 63.2133 108.245 65.2183L108.244 65.2187L108.238 65.2228C107.991 65.3945 107.74 65.5683 107.485 65.7433C104.244 67.9676 100.47 70.25 94 70.25C87.7732 70.25 84.0896 67.9607 80.8448 65.7443C80.6567 65.6158 80.4705 65.4879 80.2857 65.361L80.2856 65.3609L80.282 65.3585C77.288 63.3024 74.6632 61.5 70.5 61.5C66.6087 61.5 64.1371 63.2133 61.2446 65.2183C60.9949 65.3914 60.742 65.5667 60.4847 65.7433C57.2444 67.9676 53.4697 70.25 47 70.25C40.7732 70.25 37.0896 67.9607 33.8448 65.7443C33.6555 65.615 33.468 65.4862 33.282 65.3585C30.288 63.3024 27.6632 61.5 23.5 61.5C19.6087 61.5 17.1371 63.2133 14.2446 65.2183C13.9949 65.3914 13.742 65.5668 13.4847 65.7433ZM13.4847 45.7433C10.2444 47.9676 6.46968 50.25 -8.74228e-07 50.25L-9.39795e-07 48.75C6.03031 48.75 9.5026 46.6574 12.6358 44.5066C12.898 44.3267 13.1589 44.1453 13.4196 43.9641L13.4201 43.9637L13.4202 43.9636L13.4203 43.9636L13.4203 43.9635L13.4204 43.9635L13.4205 43.9634C16.2794 41.9757 19.1211 40 23.5 40C28.1417 40 31.1228 42.0514 34.0832 44.0885C34.2857 44.2279 34.4881 44.3671 34.6909 44.5057C37.8509 46.6643 41.2268 48.75 47 48.75C53.0303 48.75 56.5026 46.6574 59.6358 44.5066C59.8983 44.3265 60.1595 44.1449 60.4205 43.9634C63.2794 41.9757 66.1211 40 70.5 40C75.1417 40 78.1228 42.0514 81.0832 44.0885C81.2857 44.2279 81.4881 44.3671 81.6909 44.5057C84.8509 46.6643 88.2268 48.75 94 48.75C100.03 48.75 103.503 46.6574 106.636 44.5066C106.898 44.3268 107.159 44.1456 107.419 43.9644L107.42 43.9634C110.279 41.9757 113.121 40 117.5 40C122.142 40 125.123 42.0514 128.083 44.0885C128.286 44.2279 128.488 44.3671 128.691 44.5057C131.851 46.6642 135.227 48.75 141 48.75C147.03 48.75 150.503 46.6574 153.636 44.5066C153.898 44.3265 154.159 44.1449 154.42 43.9634C157.279 41.9757 160.121 40 164.5 40C169.142 40 172.123 42.0514 175.083 44.0885C175.286 44.2279 175.488 44.3671 175.691 44.5057C178.851 46.6642 182.227 48.75 188 48.75L188 50.25C181.773 50.25 178.09 47.9607 174.845 45.7443C174.656 45.6149 174.468 45.4862 174.282 45.3585C171.288 43.3024 168.663 41.5 164.5 41.5C160.609 41.5 158.137 43.2133 155.245 45.2183L155.242 45.2202L155.238 45.2227L155.236 45.224C154.989 45.3953 154.739 45.5687 154.485 45.7433C151.244 47.9676 147.47 50.25 141 50.25C134.773 50.25 131.09 47.9607 127.845 45.7443C127.657 45.6158 127.471 45.4879 127.286 45.361L127.286 45.3609L127.282 45.3585C124.288 43.3024 121.663 41.5 117.5 41.5C113.609 41.5 111.137 43.2133 108.245 45.2183L108.244 45.2187L108.238 45.2228C107.991 45.3945 107.74 45.5683 107.485 45.7433C104.244 47.9676 100.47 50.25 94 50.25C87.7732 50.25 84.0896 47.9607 80.8448 45.7443C80.6567 45.6158 80.4705 45.4879 80.2857 45.361L80.2856 45.3609L80.282 45.3585C77.288 43.3024 74.6632 41.5 70.5 41.5C66.6087 41.5 64.1371 43.2133 61.2446 45.2183C60.9949 45.3914 60.742 45.5667 60.4847 45.7433C57.2444 47.9676 53.4697 50.25 47 50.25C40.7732 50.25 37.0896 47.9607 33.8448 45.7443C33.6557 45.6151 33.4684 45.4865 33.2825 45.3588L33.282 45.3585C30.288 43.3024 27.6632 41.5 23.5 41.5C19.6087 41.5 17.1371 43.2133 14.2446 45.2183L14.2441 45.2187C13.9945 45.3917 13.7418 45.5669 13.4847 45.7433ZM13.4847 25.7433C10.2444 27.9676 6.46968 30.25 -1.74846e-06 30.25L-1.81402e-06 28.75C6.03031 28.75 9.5026 26.6574 12.6358 24.5066C12.8975 24.3271 13.1578 24.1461 13.4179 23.9652L13.4194 23.9642L13.4197 23.964L13.4203 23.9636L13.4203 23.9635L13.4204 23.9635L13.4205 23.9634C16.2794 21.9757 19.1211 20 23.5 20C28.1417 20 31.1228 22.0514 34.0832 24.0885L34.0837 24.0889C34.286 24.2281 34.4883 24.3672 34.6909 24.5057C37.8509 26.6643 41.2268 28.75 47 28.75C53.0303 28.75 56.5026 26.6574 59.6358 24.5066C59.8983 24.3265 60.1595 24.1449 60.4205 23.9634L60.4205 23.9634C63.2794 21.9757 66.1212 20 70.5 20C75.1417 20 78.1228 22.0514 81.0832 24.0885C81.2857 24.2279 81.4881 24.3671 81.6909 24.5057C84.8509 26.6642 88.2268 28.75 94 28.75C100.03 28.75 103.503 26.6574 106.636 24.5066C106.898 24.3268 107.159 24.1456 107.419 23.9644L107.42 23.9634C110.279 21.9757 113.121 20 117.5 20C122.142 20 125.123 22.0514 128.083 24.0885C128.286 24.2279 128.488 24.3671 128.691 24.5057C131.851 26.6642 135.227 28.75 141 28.75C147.03 28.75 150.503 26.6574 153.636 24.5066C153.898 24.3265 154.159 24.1449 154.42 23.9634C157.279 21.9757 160.121 20 164.5 20C169.142 20 172.123 22.0514 175.083 24.0885C175.286 24.2279 175.488 24.3671 175.691 24.5057C178.851 26.6642 182.227 28.75 188 28.75L188 30.25C181.773 30.25 178.09 27.9607 174.845 25.7443L174.582 25.5645L174.282 25.3585C171.288 23.3024 168.663 21.5 164.5 21.5C160.609 21.5 158.137 23.2133 155.245 25.2183L155.242 25.2202L155.239 25.2221L155.236 25.2246C154.989 25.3957 154.739 25.5689 154.485 25.7433C151.244 27.9676 147.47 30.25 141 30.25C134.773 30.25 131.09 27.9607 127.845 25.7443C127.657 25.6158 127.471 25.4879 127.286 25.361L127.286 25.3609L127.282 25.3585C124.288 23.3024 121.663 21.5 117.5 21.5C113.609 21.5 111.137 23.2133 108.245 25.2183L108.244 25.2187L108.238 25.2228C107.991 25.3945 107.74 25.5683 107.485 25.7433C104.244 27.9676 100.47 30.25 94 30.25C87.7732 30.25 84.0896 27.9607 80.8448 25.7443C80.6567 25.6158 80.4705 25.4879 80.2857 25.361L80.2856 25.3609L80.282 25.3585C77.288 23.3024 74.6632 21.5 70.5 21.5C66.6087 21.5 64.1371 23.2133 61.2446 25.2183C60.9949 25.3914 60.742 25.5667 60.4847 25.7433C57.2444 27.9676 53.4697 30.25 47 30.25C40.7732 30.25 37.0896 27.9607 33.8448 25.7443C33.6557 25.6151 33.4684 25.4865 33.2825 25.3588L33.282 25.3585C30.288 23.3024 27.6632 21.5 23.5 21.5C19.6087 21.5 17.1371 23.2133 14.2446 25.2183L14.2441 25.2187C13.9945 25.3917 13.7418 25.5669 13.4847 25.7433ZM-2.62268e-06 10.25C6.46968 10.25 10.2444 7.96757 13.4847 5.74332C13.7409 5.56747 13.9928 5.39287 14.2416 5.22043L14.2446 5.2183C17.1371 3.21329 19.6087 1.49997 23.5 1.49997C27.6632 1.49997 30.288 3.30243 33.282 5.35847L33.2856 5.36097C33.4705 5.4879 33.6567 5.6158 33.8448 5.74429C37.0896 7.96073 40.7732 10.25 47 10.25C53.4697 10.25 57.2444 7.96757 60.4847 5.74332C60.742 5.56675 60.9949 5.39143 61.2446 5.2183C64.1371 3.21329 66.6087 1.49997 70.5 1.49997C74.6632 1.49997 77.288 3.30243 80.282 5.35847L80.2856 5.36093L80.2857 5.361C80.4045 5.44257 80.5238 5.52452 80.6439 5.60679C80.7106 5.65254 80.7776 5.69838 80.8448 5.74429C84.0896 7.96073 87.7732 10.25 94 10.25C100.47 10.25 104.244 7.96757 107.485 5.74332C107.74 5.56826 107.991 5.39446 108.238 5.22277L108.244 5.21867L108.245 5.2183C111.137 3.21329 113.609 1.49996 117.5 1.49996C121.663 1.49996 124.288 3.30242 127.282 5.35847L127.286 5.36093L127.286 5.361C127.471 5.48792 127.657 5.6158 127.845 5.74429C131.09 7.96073 134.773 10.25 141 10.25C147.47 10.25 151.244 7.96756 154.485 5.74332C154.74 5.56823 154.991 5.39439 155.238 5.22266L155.242 5.22023L155.245 5.21829C158.137 3.21329 160.609 1.49996 164.5 1.49996C168.663 1.49996 171.288 3.30242 174.282 5.35847C174.385 5.42931 174.489 5.50046 174.593 5.57185C174.677 5.62918 174.76 5.68668 174.845 5.74429C178.09 7.96072 181.773 10.25 188 10.25L188 8.74999C182.227 8.74999 178.851 6.66425 175.691 4.50568C175.488 4.3674 175.286 4.22839 175.084 4.08932L175.083 4.08852C172.123 2.05135 169.142 -3.7911e-05 164.5 -3.77081e-05C160.121 -3.75167e-05 157.279 1.97575 154.42 3.96343C154.159 4.1449 153.898 4.32647 153.636 4.50664C150.503 6.65741 147.03 8.74999 141 8.74999C135.227 8.74999 131.851 6.66425 128.691 4.50568C128.52 4.38883 128.349 4.27147 128.178 4.15399L128.083 4.08853C125.123 2.05136 122.142 -3.58566e-05 117.5 -3.56537e-05C113.121 -3.54623e-05 110.279 1.97575 107.42 3.96344L107.419 3.96441C107.159 4.14555 106.898 4.32679 106.636 4.50664C103.503 6.65741 100.03 8.75 94 8.74999C88.2268 8.75 84.8509 6.66425 81.6909 4.50568C81.4881 4.36714 81.2857 4.22786 81.0832 4.08853C78.1228 2.05136 75.1417 -3.38021e-05 70.5 -3.35992e-05C66.1211 -3.34078e-05 63.2794 1.97575 60.4205 3.96344L60.4193 3.96424C60.1587 4.14544 59.8979 4.32673 59.6358 4.50664C56.5026 6.65741 53.0303 8.75 47 8.75C41.2268 8.75 37.8509 6.66426 34.6909 4.50568C34.4881 4.36714 34.2857 4.22787 34.0832 4.08853C31.1228 2.05136 28.1417 -3.17477e-05 23.5 -3.15448e-05C19.1211 -3.13534e-05 16.2794 1.97575 13.4205 3.96344L13.4204 3.96349L13.4203 3.96353L13.4203 3.96358C13.1593 4.145 12.8982 4.32652 12.6358 4.50664C9.5026 6.65741 6.03031 8.75 -2.68825e-06 8.75L-2.62268e-06 10.25Z" fill="#00A3FF"/>
</svg>
